<svg width="24" height="24" viewBox="0 0 24 24" fill="none" xmlns="http://www.w3.org/2000/svg">
<path d="M9.5 4C5.36 4 2 6.69 2 10C2 11.89 3.08 13.56 4.78 14.66L4 17L6.5 15.5C7.39 15.81 8.37 16 9.41 16C9.15 15.37 9 14.7 9 14C9 10.69 12.13 8 16 8C16.19 8 16.38 8 16.56 8.03C15.54 5.69 12.78 4 9.5 4ZM6.5 6.5C6.76522 6.5 7.01957 6.60536 7.20711 6.79289C7.39464 6.98043 7.5 7.23478 7.5 7.5C7.5 7.76522 7.39464 8.01957 7.20711 8.20711C7.01957 8.39464 6.76522 8.5 6.5 8.5C6.23478 8.5 5.98043 8.39464 5.79289 8.20711C5.60536 8.01957 5.5 7.76522 5.5 7.5C5.5 7.23478 5.60536 6.98043 5.79289 6.79289C5.98043 6.60536 6.23478 6.5 6.5 6.5ZM11.5 6.5C11.7652 6.5 12.0196 6.60536 12.2071 6.79289C12.3946 6.98043 12.5 7.23478 12.5 7.5C12.5 7.76522 12.3946 8.01957 12.2071 8.20711C12.0196 8.39464 11.7652 8.5 11.5 8.5C11.2348 8.5 10.9804 8.39464 10.7929 8.20711C10.6054 8.01957 10.5 7.76522 10.5 7.5C10.5 7.23478 10.6054 6.98043 10.7929 6.79289C10.9804 6.60536 11.2348 6.5 11.5 6.5ZM16 9C12.69 9 10 11.24 10 14C10 16.76 12.69 19 16 19C16.67 19 17.31 18.92 17.91 18.75L20 20L19.38 18.13C20.95 17.22 22 15.71 22 14C22 11.24 19.31 9 16 9ZM14 11.5C14.2652 11.5 14.5196 11.6054 14.7071 11.7929C14.8946 11.9804 15 12.2348 15 12.5C15 12.7652 14.8946 13.0196 14.7071 13.2071C14.5196 13.3946 14.2652 13.5 14 13.5C13.7348 13.5 13.4804 13.3946 13.2929 13.2071C13.1054 13.0196 13 12.7652 13 12.5C13 12.2348 13.1054 11.9804 13.2929 11.7929C13.4804 11.6054 13.7348 11.5 14 11.5ZM18 11.5C18.2652 11.5 18.5196 11.6054 18.7071 11.7929C18.8946 11.9804 19 12.2348 19 12.5C19 12.7652 18.8946 13.0196 18.7071 13.2071C18.5196 13.3946 18.2652 13.5 18 13.5C17.7348 13.5 17.4804 13.3946 17.2929 13.2071C17.1054 13.0196 17 12.7652 17 12.5C17 12.2348 17.1054 11.9804 17.2929 11.7929C17.4804 11.6054 17.7348 11.5 18 11.5Z" fill="black"/>
</svg>
